<svg id="Shape" xmlns="http://www.w3.org/2000/svg" width="1920" height="1285.005" viewBox="0 0 1920 1285.005">
  <path id="Shape_1" data-name="Shape 1" d="M2,1974.249S235.832,2171.87,529.156,1924c81.192-49.524,120.177-62.314,248.19-5.4,53.119,16.176,143.6,55.137,353.423,5.4,34.431-7.562,229.5-78.745,284.922-79.666,34.906-3.62,112.518,20.58,234.292,127.2,26.469,23.8,142.962,103.124,272.016,0V3129H2Z" transform="translate(-2 -1844)" fill="none"/>
  <path id="Shape_1_copy" data-name="Shape 1 copy" d="M2,1972.609s233.832,195.158,527.156-49.618c81.192-48.906,120.177-61.537,248.19-5.334,53.119,15.974,143.6,54.45,353.423,5.334,34.431-7.468,229.5-77.764,284.922-78.672,34.906-3.575,112.518,21.347,234.292,126.64,26.469,23.507,142.962,101.839,272.016,0V3113.988H2Z" transform="translate(-2 -1828.983)" fill="#87c200"/>
</svg>
